<?xml version="1.0" encoding="iso-8859-1"?>
<!-- Generator: Adobe Illustrator 27.0.1, SVG Export Plug-In . SVG Version: 6.00 Build 0)  -->
<svg version="1.1" id="Layer_1" xmlns="http://www.w3.org/2000/svg" xmlns:xlink="http://www.w3.org/1999/xlink" x="0px" y="0px"
	 width="24px" height="24px" viewBox="0 0 24 24" enable-background="new 0 0 24 24" xml:space="preserve">
<g>
	<path fill="#FFFFFF" d="M12,0C5.373,0,0,5.373,0,12s5.373,12,12,12c6.627,0,12-5.373,12-12S18.627,0,12,0z M19.035,14.792
		c0,2.331-1.896,4.226-4.226,4.226H9.191c-2.33,0-4.226-1.896-4.226-4.226V9.174c0-2.331,1.896-4.226,4.226-4.226h5.617
		c2.331,0,4.226,1.896,4.226,4.226V14.792z"/>
	<path fill="#FFFFFF" d="M14.809,6.272H9.191c-1.6,0-2.903,1.302-2.903,2.903v5.617c0,1.601,1.302,2.903,2.903,2.903h5.617
		c1.6,0,2.903-1.302,2.903-2.903V9.174C17.711,7.574,16.409,6.272,14.809,6.272z M12.058,15.448c-1.911,0-3.465-1.555-3.465-3.465
		c0-1.911,1.554-3.465,3.465-3.465c1.91,0,3.465,1.554,3.465,3.465C15.523,13.894,13.968,15.448,12.058,15.448z M15.725,9.11
		c-0.455,0-0.825-0.369-0.825-0.825c0-0.455,0.369-0.825,0.825-0.825c0.456,0,0.825,0.369,0.825,0.825
		C16.55,8.741,16.181,9.11,15.725,9.11z"/>
	<path fill="#FFFFFF" d="M14.277,11.983c0,1.224-0.996,2.219-2.219,2.219c-1.224,0-2.22-0.996-2.22-2.219
		c0-1.224,0.996-2.22,2.22-2.22C13.282,9.763,14.277,10.759,14.277,11.983z"/>
</g>
</svg>
