<?xml version="1.0" encoding="iso-8859-1"?>
<!-- Generator: Adobe Illustrator 27.0.1, SVG Export Plug-In . SVG Version: 6.00 Build 0)  -->
<svg version="1.1" id="Layer_1" xmlns="http://www.w3.org/2000/svg" xmlns:xlink="http://www.w3.org/1999/xlink" x="0px" y="0px"
	 width="24px" height="24px" viewBox="0 0 24 24" enable-background="new 0 0 24 24" xml:space="preserve">
<path fill="#FFFFFF" d="M12,0C5.373,0,0,5.373,0,12s5.373,12,12,12s12-5.373,12-12S18.627,0,12,0z M16.335,14.066
	c-1.49,1.848-3.905,1.97-5.019,0.836c-0.086-0.087-0.155-0.189-0.239-0.293c-0.012,0.042-0.024,0.077-0.033,0.112
	c-0.535,2.096-0.594,2.562-1.144,3.535c-0.262,0.462-0.557,0.901-0.884,1.32c-0.037,0.048-0.071,0.109-0.145,0.094
	c-0.081-0.017-0.087-0.09-0.095-0.154c-0.088-0.636-0.137-1.275-0.115-1.918c0.028-0.838,0.132-1.125,1.211-5.665
	c0.016-0.07-0.002-0.127-0.025-0.189c-0.258-0.697-0.309-1.405-0.084-2.122c0.489-1.549,2.244-1.667,2.551-0.389
	c0.189,0.79-0.311,1.825-0.695,3.353c-0.318,1.261,1.167,2.158,2.436,1.237c1.17-0.849,1.625-2.884,1.538-4.326
	C15.422,6.621,12.269,6,10.268,6.926c-2.293,1.061-2.815,3.903-1.779,5.203c0.132,0.165,0.232,0.266,0.189,0.434
	c-0.067,0.26-0.126,0.522-0.197,0.781c-0.054,0.193-0.215,0.263-0.409,0.184c-0.381-0.154-0.7-0.398-0.957-0.718
	C6.234,11.72,5.983,9.566,7.145,7.743c1.288-2.02,3.684-2.837,5.872-2.589c2.613,0.297,4.264,2.082,4.573,4.108
	C17.731,10.183,17.63,12.459,16.335,14.066z"/>
</svg>
