<?xml version="1.0" encoding="iso-8859-1"?>
<!-- Generator: Adobe Illustrator 27.0.1, SVG Export Plug-In . SVG Version: 6.00 Build 0)  -->
<svg version="1.1" id="Layer_1" xmlns="http://www.w3.org/2000/svg" xmlns:xlink="http://www.w3.org/1999/xlink" x="0px" y="0px"
	 width="24px" height="24px" viewBox="0 0 24 24" enable-background="new 0 0 24 24" xml:space="preserve">
<path fill="#FFFFFF" d="M12,0C5.373,0,0,5.373,0,12s5.373,12,12,12s12-5.373,12-12S18.627,0,12,0z M18.684,7.9
	c0,0.034,0,0.116-0.069,0.208c-0.306,0.412-0.636,0.78-1.046,1.088c-0.059,0.045-0.159,0.091-0.159,0.176
	c0,2.162-0.552,4.32-2.127,5.885c-2.006,1.993-5.016,2.535-7.687,1.798c-0.517-0.143-1.012-0.343-1.487-0.595
	c-0.157-0.086-0.311-0.175-0.463-0.275c-0.039-0.031-0.067-0.06-0.034-0.08c0.032-0.016,0.058-0.017,0.177,0
	c0.747,0.074,1.517-0.038,2.224-0.285c0.389-0.136,1.224-0.409,1.465-0.776c0.005-0.008,0.011-0.008,0.017-0.017
	c-0.097-0.023-0.195-0.023-0.292-0.04c-0.726-0.208-1.695-0.572-2.144-1.796c-0.028-0.071,0-0.109,0.075-0.094
	c0.597,0.047,0.812,0.014,1.02-0.031c-0.117-0.02-0.237-0.06-0.346-0.106c-0.914-0.348-1.583-1.24-1.704-2.204
	c-0.014-0.111-0.023-0.206-0.017-0.309c0.006-0.071,0.037-0.094,0.1-0.054c0.47,0.243,0.998,0.3,1.041,0.291
	C7.109,10.593,7,10.493,6.894,10.393c-0.793-0.751-1.101-2.28-0.466-3.231C6.48,7.085,6.514,7.085,6.577,7.156
	c1.45,1.653,3.237,2.424,5.392,2.745c0.057,0.008,0.063,0,0.054-0.063c-0.056-0.38-0.064-0.751,0.028-1.127
	c0.095-0.389,0.281-0.756,0.533-1.067c0.244-0.301,0.549-0.55,0.892-0.729c0.342-0.179,0.721-0.287,1.106-0.313
	c0.396-0.026,0.798,0.038,1.166,0.188c0.28,0.114,0.529,0.269,0.76,0.466c0.049,0.04,0.091,0.089,0.137,0.14
	c0.029,0.029,0.063,0.04,0.108,0.029c0.551-0.138,1.069-0.332,1.569-0.601c0.023-0.011,0.042-0.017,0.07-0.006
	c0.023,0.017,0.014,0.046,0.003,0.069c-0.09,0.293-0.248,0.564-0.439,0.801c-0.125,0.156-0.438,0.541-0.651,0.577
	c0.448-0.075,0.908-0.189,1.324-0.377c0.053-0.024,0.054-0.035,0.054,0C18.684,7.888,18.684,7.894,18.684,7.9z"/>
</svg>
