<?xml version="1.0" encoding="iso-8859-1"?>
<!-- Generator: Adobe Illustrator 27.0.0, SVG Export Plug-In . SVG Version: 6.00 Build 0)  -->
<svg version="1.1" id="Layer_1" xmlns="http://www.w3.org/2000/svg" xmlns:xlink="http://www.w3.org/1999/xlink" x="0px" y="0px"
	 width="24px" height="24px" viewBox="0 0 24 24" enable-background="new 0 0 24 24" xml:space="preserve">
<path d="M22.5,6h-21C0.672,6,0,5.328,0,4.5v-3C0,0.672,0.672,0,1.5,0h21C23.328,0,24,0.672,24,1.5v3C24,5.328,23.328,6,22.5,6z"/>
<path d="M22.5,15h-21C0.672,15,0,14.328,0,13.5v-3C0,9.672,0.672,9,1.5,9h21c0.828,0,1.5,0.672,1.5,1.5v3
	C24,14.328,23.328,15,22.5,15z"/>
<path d="M22.5,24h-21C0.672,24,0,23.328,0,22.5v-3C0,18.672,0.672,18,1.5,18h21c0.828,0,1.5,0.672,1.5,1.5v3
	C24,23.328,23.328,24,22.5,24z"/>
</svg>
