<?xml version="1.0" encoding="utf-8"?>
<!-- Generator: Adobe Illustrator 27.0.1, SVG Export Plug-In . SVG Version: 6.00 Build 0)  -->
<svg version="1.1" id="Layer_1" xmlns="http://www.w3.org/2000/svg" xmlns:xlink="http://www.w3.org/1999/xlink" x="0px" y="0px"
	 width="48px" height="48px" viewBox="0 0 48 48" style="enable-background:new 0 0 48 48;" xml:space="preserve">
<style type="text/css">
	.st0{fill:#FFFFFF;}
</style>
<path class="st0" d="M46.5,12h-45C0.7,12,0,11.3,0,10.5v-9C0,0.7,0.7,0,1.5,0h45C47.3,0,48,0.7,48,1.5v9C48,11.3,47.3,12,46.5,12z"
	/>
<path class="st0" d="M46.5,30h-45C0.7,30,0,29.3,0,28.5v-9C0,18.7,0.7,18,1.5,18h45c0.8,0,1.5,0.7,1.5,1.5v9
	C48,29.3,47.3,30,46.5,30z"/>
<path class="st0" d="M46.5,48h-45C0.7,48,0,47.3,0,46.5v-9C0,36.7,0.7,36,1.5,36h45c0.8,0,1.5,0.7,1.5,1.5v9
	C48,47.3,47.3,48,46.5,48z"/>
</svg>
