<?xml version="1.0" encoding="iso-8859-1"?>
<!-- Generator: Adobe Illustrator 27.0.1, SVG Export Plug-In . SVG Version: 6.00 Build 0)  -->
<svg version="1.1" id="Layer_1" xmlns="http://www.w3.org/2000/svg" xmlns:xlink="http://www.w3.org/1999/xlink" x="0px" y="0px"
	 width="24px" height="24px" viewBox="0 0 24 24" enable-background="new 0 0 24 24" xml:space="preserve">
<g>
	<path fill="#FFFFFF" d="M14.091,12.227l-3.304,1.635c-0.13,0.07-0.57-0.024-0.57-0.171v-3.355c0-0.149,0.444-0.243,0.573-0.169
		l3.163,1.721C14.086,11.962,14.225,12.154,14.091,12.227z"/>
	<path fill="#FFFFFF" d="M12,0C5.373,0,0,5.373,0,12s5.373,12,12,12s12-5.373,12-12S18.627,0,12,0z M18.424,13.684
		c0,1.591-1.29,2.881-2.881,2.881H8.175c-1.591,0-2.881-1.29-2.881-2.881v-3.429c0-1.591,1.29-2.881,2.881-2.881h7.368
		c1.591,0,2.881,1.29,2.881,2.881V13.684z"/>
</g>
</svg>
